<?xml version="1.0" encoding="UTF-8" standalone="no"?>
<!DOCTYPE svg PUBLIC "-//W3C//DTD SVG 1.1//EN" "http://www.w3.org/Graphics/SVG/1.1/DTD/svg11.dtd">
<svg width="100%" height="100%" viewBox="0 0 417 417" version="1.1" xmlns="http://www.w3.org/2000/svg" xmlns:xlink="http://www.w3.org/1999/xlink" xml:space="preserve" xmlns:serif="http://www.serif.com/" style="fill-rule:evenodd;clip-rule:evenodd;stroke-linejoin:round;stroke-miterlimit:1.41421;">
    <g transform="matrix(4.16667,0,0,4.16667,0.0135039,0.0104465)">
        <path d="M98.72,38.73C98.591,38.402 98.42,38.093 98.21,37.81C96.41,35.504 93.603,34.203 90.68,34.32L90.17,34.32C88.494,34.277 86.965,33.336 86.17,31.86C86.167,31.86 86.163,31.86 86.16,31.86C86.088,31.86 86.03,31.802 86.03,31.73C86.03,31.727 86.03,31.723 86.03,31.72C85.5,30.8 85.03,30.04 84.49,29.12C84.434,29.107 84.393,29.058 84.39,29C83.498,27.539 83.445,25.71 84.25,24.2C84.382,24.109 84.472,23.968 84.5,23.81C86.025,21.221 86.304,18.078 85.26,15.26C85.162,14.918 84.988,14.604 84.75,14.34C83.047,12.73 81.258,11.215 79.39,9.8C79.14,9.68 78.86,9.55 78.49,9.41C75.569,8.81 72.531,9.631 70.31,11.62C70.163,11.661 70.033,11.749 69.94,11.87C69.158,12.537 68.157,12.893 67.13,12.87C66.51,12.859 65.899,12.726 65.33,12.48C64.38,12.074 63.4,11.739 62.4,11.48C60.802,10.911 59.631,9.521 59.34,7.85C59.311,7.676 59.264,7.505 59.2,7.34C58.825,4.354 57.007,1.735 54.34,0.34C54.069,0.184 53.762,0.101 53.45,0.1C51.155,-0.037 48.855,-0.037 46.56,0.1C46.247,0.128 45.942,0.213 45.66,0.35C42.998,1.809 41.189,4.459 40.8,7.47C40.693,7.569 40.64,7.715 40.66,7.86C40.4,9.545 39.217,10.949 37.6,11.49C36.72,11.74 35.69,12.13 34.67,12.49C34.079,12.631 33.477,12.715 32.87,12.74C31.848,12.73 30.858,12.378 30.06,11.74C29.94,11.6 29.81,11.6 29.69,11.47C27.475,9.471 24.431,8.648 21.51,9.26C21.171,9.269 20.848,9.408 20.61,9.65C18.675,10.98 16.877,12.497 15.24,14.18C15.026,14.46 14.854,14.77 14.73,15.1C13.633,17.91 13.914,21.078 15.49,23.65C15.584,23.773 15.668,23.903 15.74,24.04C16.541,25.551 16.488,27.378 15.6,28.84C15.597,28.84 15.593,28.84 15.59,28.84C15.518,28.84 15.46,28.898 15.46,28.97C15.46,28.973 15.46,28.977 15.46,28.98C14.911,29.81 14.423,30.679 14,31.58C13.997,31.58 13.993,31.58 13.99,31.58C13.918,31.58 13.86,31.638 13.86,31.71C13.86,31.713 13.86,31.717 13.86,31.72C13.11,33.237 11.552,34.195 9.86,34.18L9.34,34.18C6.421,34.105 3.63,35.406 1.81,37.69C1.572,37.954 1.398,38.268 1.3,38.61C0.689,40.995 0.255,43.421 0,45.87C-0.017,46.209 0.031,46.548 0.14,46.87C1.088,49.621 3.251,51.788 6,52.74C6.174,52.772 6.344,52.818 6.51,52.88C8.097,53.431 9.236,54.843 9.44,56.51L9.44,56.65C9.54,57.661 9.71,58.663 9.95,59.65L9.95,59.79C10.239,61.462 9.658,63.171 8.41,64.32C8.263,64.361 8.133,64.449 8.04,64.57C5.803,66.376 4.491,69.095 4.47,71.97C4.501,72.314 4.585,72.652 4.72,72.97C5.845,75.261 7.125,77.473 8.55,79.59C8.668,79.961 8.959,80.252 9.33,80.37C11.779,81.746 14.726,81.934 17.33,80.88C17.512,80.916 17.702,80.864 17.84,80.74C18.335,80.57 18.856,80.485 19.38,80.49C19.94,80.488 20.495,80.586 21.02,80.78C21.575,80.994 22.094,81.29 22.56,81.66L24.86,83.66L25,83.8C26.283,84.87 26.914,86.539 26.66,88.19C26.564,88.343 26.516,88.52 26.52,88.7C25.943,91.468 26.601,94.355 28.32,96.6C28.569,96.877 28.876,97.096 29.22,97.24C31.553,98.395 33.999,99.303 36.52,99.95C36.891,100.086 37.299,100.086 37.67,99.95C40.408,99.39 42.753,97.625 44.05,95.15C44.144,95.027 44.228,94.897 44.3,94.76C45.064,93.226 46.692,92.305 48.4,92.44L51.6,92.44C53.288,92.397 54.867,93.291 55.7,94.76C55.794,94.883 55.878,95.013 55.95,95.15C57.245,97.627 59.591,99.392 62.33,99.95L62.84,99.95C62.98,99.95 63.21,99.95 63.05,99.68C65.526,98.908 67.957,97.996 70.33,96.95C70.676,96.811 70.985,96.591 71.23,96.31C72.6,94.683 73.341,92.617 73.32,90.49C73.318,89.879 73.258,89.269 73.14,88.67C73.159,88.402 73.111,88.134 73,87.89C72.791,86.249 73.48,84.617 74.8,83.62C74.773,83.593 74.759,83.557 74.759,83.52C74.759,83.442 74.822,83.379 74.9,83.379C74.937,83.379 74.973,83.393 75,83.42C75.821,82.819 76.59,82.15 77.3,81.42L77.44,81.42C78.276,80.659 79.369,80.241 80.5,80.25C80.875,80.247 81.248,80.294 81.61,80.39C81.758,80.42 81.902,80.467 82.04,80.53C82.214,80.562 82.384,80.608 82.55,80.67C83.096,80.873 83.658,81.03 84.23,81.14C84.816,81.258 85.412,81.318 86.01,81.32C87.622,81.334 89.21,80.931 90.62,80.15L91.4,79.37C92.901,77.301 94.184,75.082 95.23,72.75C95.388,72.44 95.473,72.098 95.48,71.75C95.429,68.882 94.123,66.175 91.91,64.35C91.79,64.23 91.66,64.1 91.54,63.96C90.369,62.985 89.786,61.468 90,59.96L90,59.81C90.238,58.823 90.408,57.82 90.51,56.81L90.51,56.7C91,53.74 93.19,53 93.45,53C93.652,53.04 93.861,52.972 94,52.82C96.735,51.883 98.889,49.733 99.83,47C99.939,46.678 99.987,46.339 99.97,46C99.753,43.547 99.335,41.115 98.72,38.73ZM50,71.11C49.943,71.11 49.887,71.111 49.83,71.111C38.568,71.111 29.3,61.843 29.3,50.581C29.3,39.318 38.568,30.051 49.83,30.051C61.07,30.051 70.327,39.281 70.36,50.52C70.361,50.583 70.361,50.647 70.361,50.71C70.361,61.886 61.176,71.089 50,71.11Z" style="fill:white;fill-rule:nonzero;"/>
    </g>
</svg>
