<?xml version="1.0" encoding="UTF-8"?>
<svg width="142px" height="140px" viewBox="0 0 142 140" xmlns="http://www.w3.org/2000/svg" xmlns:xlink="http://www.w3.org/1999/xlink" version="1.1">
 <!-- Generated by Pixelmator Pro 2.2 -->
 <g id="Regular-L">
  <path id="Path" d="M70.816 131.318 Q72.134 131.318 73.428 131.245 74.722 131.172 76.041 131.025 L79.507 137.715 Q79.996 138.74 80.923 139.18 81.851 139.619 83.121 139.473 84.292 139.277 84.976 138.521 85.66 137.764 85.806 136.543 L86.88 129.17 Q89.371 128.535 91.836 127.607 94.302 126.68 96.646 125.654 L102.115 130.537 Q102.994 131.367 103.995 131.514 104.996 131.66 106.168 131.025 107.144 130.488 107.535 129.536 107.925 128.584 107.681 127.363 L106.168 120.088 Q108.267 118.623 110.293 116.963 112.32 115.303 114.126 113.447 L120.914 116.279 Q122.037 116.768 123.038 116.523 124.039 116.279 124.918 115.205 125.748 114.375 125.821 113.35 125.894 112.324 125.21 111.299 L121.255 104.951 Q122.72 102.9 123.99 100.63 125.259 98.359 126.382 95.967 L133.853 96.357 Q135.074 96.406 135.928 95.82 136.783 95.234 137.173 94.111 137.564 92.988 137.247 92.012 136.929 91.035 136.001 90.303 L130.191 85.615 Q130.826 83.223 131.29 80.635 131.753 78.047 131.949 75.361 L138.98 73.164 Q140.152 72.725 140.787 71.919 141.421 71.113 141.421 69.893 141.421 68.721 140.787 67.915 140.152 67.109 138.98 66.67 L131.949 64.473 Q131.753 61.787 131.29 59.224 130.826 56.66 130.191 54.219 L136.001 49.531 Q136.929 48.848 137.222 47.896 137.515 46.943 137.173 45.82 136.783 44.648 135.928 44.087 135.074 43.525 133.853 43.574 L126.382 43.867 Q125.259 41.475 123.99 39.229 122.72 36.982 121.255 34.834 L125.21 28.535 Q125.845 27.559 125.772 26.558 125.699 25.557 124.918 24.678 124.039 23.604 123.038 23.359 122.037 23.115 120.914 23.652 L114.126 26.387 Q112.32 24.58 110.293 22.896 108.267 21.211 106.168 19.795 L107.681 12.568 Q107.925 11.299 107.535 10.347 107.144 9.395 106.168 8.857 104.996 8.271 103.995 8.369 102.994 8.467 102.115 9.346 L96.646 14.18 Q94.302 13.105 91.836 12.251 89.371 11.396 86.88 10.713 L85.806 3.34 Q85.66 2.119 84.952 1.362 84.244 0.605 83.072 0.459 81.851 0.264 80.923 0.703 79.996 1.143 79.507 2.119 L76.041 8.809 Q74.722 8.711 73.428 8.638 72.134 8.564 70.816 8.564 69.498 8.564 68.228 8.638 66.958 8.711 65.64 8.809 L62.125 2.119 Q61.636 1.143 60.708 0.703 59.781 0.264 58.511 0.459 57.388 0.605 56.68 1.362 55.972 2.119 55.826 3.34 L54.751 10.664 Q52.261 11.396 49.82 12.251 47.378 13.105 44.986 14.18 L39.517 9.346 Q38.638 8.516 37.637 8.394 36.636 8.271 35.464 8.857 34.488 9.395 34.122 10.347 33.755 11.299 33.951 12.568 L35.513 19.795 Q33.365 21.211 31.363 22.896 29.361 24.58 27.505 26.387 L20.718 23.652 Q19.595 23.115 18.619 23.359 17.642 23.604 16.714 24.678 15.933 25.557 15.86 26.558 15.787 27.559 16.421 28.486 L20.425 34.834 Q18.96 36.982 17.667 39.229 16.373 41.475 15.298 43.867 L7.779 43.574 Q6.607 43.525 5.728 44.087 4.849 44.648 4.507 45.82 4.068 46.943 4.361 47.896 4.654 48.848 5.679 49.531 L11.49 54.219 Q10.855 56.66 10.367 59.224 9.878 61.787 9.732 64.424 L2.652 66.67 Q1.431 67.061 0.845 67.866 0.259 68.672 0.259 69.893 0.259 71.162 0.845 71.968 1.431 72.773 2.652 73.164 L9.732 75.41 Q9.878 78.047 10.342 80.635 10.806 83.223 11.49 85.615 L5.679 90.303 Q4.703 90.986 4.41 91.963 4.117 92.939 4.507 94.111 4.849 95.234 5.728 95.82 6.607 96.406 7.779 96.357 L15.298 95.967 Q16.373 98.359 17.642 100.63 18.912 102.9 20.376 104.951 L16.47 111.299 Q15.787 112.324 15.86 113.35 15.933 114.375 16.714 115.205 17.642 116.279 18.619 116.523 19.595 116.768 20.718 116.279 L27.505 113.447 Q29.361 115.303 31.363 116.963 33.365 118.623 35.513 120.088 L33.951 127.363 Q33.755 128.584 34.122 129.536 34.488 130.488 35.464 131.025 36.636 131.66 37.637 131.514 38.638 131.367 39.517 130.537 L44.986 125.654 Q47.33 126.68 49.795 127.607 52.261 128.535 54.751 129.17 L55.826 136.543 Q55.972 137.764 56.68 138.521 57.388 139.277 58.56 139.473 59.83 139.619 60.733 139.18 61.636 138.74 62.125 137.715 L65.64 131.025 Q66.91 131.172 68.204 131.245 69.498 131.318 70.816 131.318 Z M70.816 123.164 Q59.732 123.164 50.186 119.063 40.64 114.961 33.487 107.661 26.333 100.361 22.33 90.718 18.326 81.074 18.326 69.941 18.326 58.857 22.33 49.189 26.333 39.521 33.487 32.246 40.64 24.971 50.186 20.869 59.732 16.768 70.816 16.768 81.949 16.768 91.495 20.869 101.041 24.971 108.194 32.246 115.347 39.521 119.351 49.189 123.355 58.857 123.355 69.941 123.355 81.074 119.351 90.718 115.347 100.361 108.194 107.661 101.041 114.961 91.495 119.063 81.949 123.164 70.816 123.164 Z M70.767 86.152 Q74.38 86.152 77.432 84.663 80.484 83.174 82.754 80.366 85.025 77.559 86.197 73.652 L128.775 73.652 128.677 66.377 86.197 66.377 Q84.927 62.617 82.657 59.883 80.386 57.148 77.359 55.708 74.332 54.268 70.767 54.268 69.791 54.268 68.741 54.414 67.691 54.561 66.226 54.951 L44.839 18.33 38.296 21.992 59.927 58.906 Q57.388 61.396 56.119 64.253 54.849 67.109 54.849 70.234 54.849 73.311 56.143 76.143 57.437 78.975 60.074 81.514 L37.808 117.988 44.253 121.797 66.324 85.518 Q67.74 85.859 68.79 86.006 69.839 86.152 70.767 86.152 Z M62.662 70.186 Q62.662 66.768 65.127 64.424 67.593 62.08 70.865 62.08 74.234 62.08 76.675 64.424 79.117 66.768 79.117 70.186 79.117 73.555 76.675 75.972 74.234 78.389 70.865 78.389 67.593 78.389 65.127 75.972 62.662 73.555 62.662 70.186 Z" fill="#ffffff" fill-opacity="1" stroke="none"/>
 </g>
</svg>
